{
	"asset":{
		"generator":"Khronos glTF Blender I/O v3.5.30",
		"version":"2.0"
	},
	"scene":0,
	"scenes":[
		{
			"name":"Scene",
			"nodes":[
				0
			]
		}
	],
	"nodes":[
		{
			"mesh":0,
			"name":"TopFace"
		}
	],
	"animations":[
		{
			"channels":[
				{
					"sampler":0,
					"target":{
						"node":0,
						"path":"translation"
					}
				},
				{
					"sampler":1,
					"target":{
						"node":0,
						"path":"rotation"
					}
				}
			],
			"name":"bottomface",
			"samplers":[
				{
					"input":12,
					"interpolation":"LINEAR",
					"output":13
				},
				{
					"input":12,
					"interpolation":"LINEAR",
					"output":14
				}
			]
		},
		{
			"channels":[
				{
					"sampler":0,
					"target":{
						"node":0,
						"path":"translation"
					}
				},
				{
					"sampler":1,
					"target":{
						"node":0,
						"path":"rotation"
					}
				}
			],
			"name":"topface",
			"samplers":[
				{
					"input":12,
					"interpolation":"LINEAR",
					"output":15
				},
				{
					"input":12,
					"interpolation":"LINEAR",
					"output":16
				}
			]
		}
	],
	"materials":[
		{
			"doubleSided":true,
			"name":"Gold coin",
			"pbrMetallicRoughness":{
				"baseColorFactor":[
					0.01287010870873928,
					0.8000000715255737,
					0.10266110301017761,
					1
				],
				"metallicFactor":0.1376146823167801,
				"roughnessFactor":0.5
			}
		},
		{
			"doubleSided":true,
			"name":"Top face",
			"pbrMetallicRoughness":{
				"baseColorTexture":{
					"index":0
				},
				"metallicFactor":0,
				"roughnessFactor":0.5
			}
		},
		{
			"doubleSided":true,
			"name":"Bottom face",
			"pbrMetallicRoughness":{
				"baseColorTexture":{
					"index":1
				},
				"metallicFactor":0,
				"roughnessFactor":0.5
			}
		}
	],
	"meshes":[
		{
			"name":"Cylinder.001",
			"primitives":[
				{
					"attributes":{
						"POSITION":0,
						"TEXCOORD_0":1,
						"NORMAL":2
					},
					"indices":3,
					"material":0
				},
				{
					"attributes":{
						"POSITION":4,
						"TEXCOORD_0":5,
						"NORMAL":6
					},
					"indices":7,
					"material":1
				},
				{
					"attributes":{
						"POSITION":8,
						"TEXCOORD_0":9,
						"NORMAL":10
					},
					"indices":11,
					"material":2
				}
			]
		}
	],
	"textures":[
		{
			"sampler":0,
			"source":0
		},
		{
			"sampler":0,
			"source":1
		}
	],
	"images":[
		{
			"mimeType":"image/png",
			"name":"1",
			"uri":"1.png"
		},
		{
			"mimeType":"image/png",
			"name":"5",
			"uri":"5.png"
		}
	],
	"accessors":[
		{
			"bufferView":0,
			"componentType":5126,
			"count":13696,
			"max":[
				1,
				0.10000000149011612,
				1
			],
			"min":[
				-1,
				-0.10000000149011612,
				-1
			],
			"type":"VEC3"
		},
		{
			"bufferView":1,
			"componentType":5126,
			"count":13696,
			"type":"VEC2"
		},
		{
			"bufferView":2,
			"componentType":5126,
			"count":13696,
			"type":"VEC3"
		},
		{
			"bufferView":3,
			"componentType":5123,
			"count":43008,
			"type":"SCALAR"
		},
		{
			"bufferView":4,
			"componentType":5126,
			"count":256,
			"max":[
				0.6699005961418152,
				0.049999985843896866,
				0.6699005961418152
			],
			"min":[
				-0.6699005961418152,
				0.049999985843896866,
				-0.6699005961418152
			],
			"type":"VEC3"
		},
		{
			"bufferView":5,
			"componentType":5126,
			"count":256,
			"type":"VEC2"
		},
		{
			"bufferView":6,
			"componentType":5126,
			"count":256,
			"type":"VEC3"
		},
		{
			"bufferView":7,
			"componentType":5123,
			"count":762,
			"type":"SCALAR"
		},
		{
			"bufferView":8,
			"componentType":5126,
			"count":256,
			"max":[
				0.6699005961418152,
				-0.050000011920928955,
				0.6699005961418152
			],
			"min":[
				-0.6699005961418152,
				-0.050000011920928955,
				-0.6699005961418152
			],
			"type":"VEC3"
		},
		{
			"bufferView":9,
			"componentType":5126,
			"count":256,
			"type":"VEC2"
		},
		{
			"bufferView":10,
			"componentType":5126,
			"count":256,
			"type":"VEC3"
		},
		{
			"bufferView":11,
			"componentType":5123,
			"count":762,
			"type":"SCALAR"
		},
		{
			"bufferView":12,
			"componentType":5126,
			"count":52,
			"max":[
				2.1666666666666665
			],
			"min":[
				0.041666666666666664
			],
			"type":"SCALAR"
		},
		{
			"bufferView":13,
			"componentType":5126,
			"count":52,
			"type":"VEC3"
		},
		{
			"bufferView":14,
			"componentType":5126,
			"count":52,
			"type":"VEC4"
		},
		{
			"bufferView":15,
			"componentType":5126,
			"count":52,
			"type":"VEC3"
		},
		{
			"bufferView":16,
			"componentType":5126,
			"count":52,
			"type":"VEC4"
		}
	],
	"bufferViews":[
		{
			"buffer":0,
			"byteLength":164352,
			"byteOffset":0,
			"target":34962
		},
		{
			"buffer":0,
			"byteLength":109568,
			"byteOffset":164352,
			"target":34962
		},
		{
			"buffer":0,
			"byteLength":164352,
			"byteOffset":273920,
			"target":34962
		},
		{
			"buffer":0,
			"byteLength":86016,
			"byteOffset":438272,
			"target":34963
		},
		{
			"buffer":0,
			"byteLength":3072,
			"byteOffset":524288,
			"target":34962
		},
		{
			"buffer":0,
			"byteLength":2048,
			"byteOffset":527360,
			"target":34962
		},
		{
			"buffer":0,
			"byteLength":3072,
			"byteOffset":529408,
			"target":34962
		},
		{
			"buffer":0,
			"byteLength":1524,
			"byteOffset":532480,
			"target":34963
		},
		{
			"buffer":0,
			"byteLength":3072,
			"byteOffset":534004,
			"target":34962
		},
		{
			"buffer":0,
			"byteLength":2048,
			"byteOffset":537076,
			"target":34962
		},
		{
			"buffer":0,
			"byteLength":3072,
			"byteOffset":539124,
			"target":34962
		},
		{
			"buffer":0,
			"byteLength":1524,
			"byteOffset":542196,
			"target":34963
		},
		{
			"buffer":0,
			"byteLength":208,
			"byteOffset":543720
		},
		{
			"buffer":0,
			"byteLength":624,
			"byteOffset":543928
		},
		{
			"buffer":0,
			"byteLength":832,
			"byteOffset":544552
		},
		{
			"buffer":0,
			"byteLength":624,
			"byteOffset":545384
		},
		{
			"buffer":0,
			"byteLength":832,
			"byteOffset":546008
		}
	],
	"samplers":[
		{
			"magFilter":9729,
			"minFilter":9987
		}
	],
	"buffers":[
		{
			"byteLength":546840,
			"uri":"3dcoin.bin"
		}
	]
}
