<svg width="26" height="22" viewBox="0 0 26 22" fill="none" xmlns="http://www.w3.org/2000/svg">
<path d="M24.6667 1.67713C24.6667 1.67713 22.5264 2.91716 21.3364 3.26878C20.6976 2.54838 19.8487 2.03779 18.9045 1.80605C17.9602 1.57431 16.9662 1.6326 16.0568 1.97304C15.1474 2.31349 14.3666 2.91965 13.8199 3.70956C13.2732 4.49947 12.987 5.43501 13 6.38965V7.42994C11.1362 7.47735 9.28927 7.07189 7.62384 6.24968C5.95841 5.42746 4.52613 4.21402 3.45459 2.71742C3.45459 2.71742 -0.787838 12.08 8.75762 16.2412C6.57333 17.6955 3.97127 18.4247 1.33337 18.3218C10.8788 23.5233 22.5455 18.3218 22.5455 6.35844C22.5455 6.06924 22.5158 5.78004 22.4606 5.495C23.5425 4.44847 24.6667 1.67713 24.6667 1.67713Z" stroke="#3D3D3D" stroke-width="1.5" stroke-linecap="round" stroke-linejoin="round"/>
</svg>
