<svg width="16" height="4" viewBox="0 0 16 4" fill="none" xmlns="http://www.w3.org/2000/svg">
<path fill-rule="evenodd" clip-rule="evenodd" d="M1.11612 1.11612C1.35054 0.881695 1.66848 0.75 2 0.75C2.33152 0.75 2.64946 0.881695 2.88388 1.11612C3.1183 1.35054 3.25 1.66848 3.25 2C3.25 2.33152 3.1183 2.64946 2.88388 2.88388C2.64946 3.11831 2.33152 3.25 2 3.25C1.66848 3.25 1.35054 3.11831 1.11612 2.88388C0.881696 2.64946 0.75 2.33152 0.75 2C0.75 1.66848 0.881696 1.35054 1.11612 1.11612ZM2 2.25C2.0663 2.25 2.12989 2.22366 2.17678 2.17678C2.22366 2.12989 2.25 2.0663 2.25 2C2.25 1.9337 2.22366 1.87011 2.17678 1.82322C2.12989 1.77634 2.0663 1.75 2 1.75C1.9337 1.75 1.87011 1.77634 1.82322 1.82322C1.77634 1.87011 1.75 1.9337 1.75 2C1.75 2.0663 1.77634 2.12989 1.82322 2.17678C1.87011 2.22366 1.9337 2.25 2 2.25ZM7.11612 1.11612C7.35054 0.881694 7.66848 0.75 8 0.75C8.33152 0.75 8.64946 0.881694 8.88388 1.11612C9.11831 1.35054 9.25 1.66848 9.25 2C9.25 2.33152 9.11831 2.64946 8.88388 2.88388C8.64946 3.11831 8.33152 3.25 8 3.25C7.66848 3.25 7.35054 3.11831 7.11612 2.88388C6.88169 2.64946 6.75 2.33152 6.75 2C6.75 1.66848 6.88169 1.35054 7.11612 1.11612ZM8 2.25C8.0663 2.25 8.12989 2.22366 8.17678 2.17678C8.22366 2.12989 8.25 2.0663 8.25 2C8.25 1.9337 8.22366 1.87011 8.17678 1.82322C8.12989 1.77634 8.0663 1.75 8 1.75C7.9337 1.75 7.87011 1.77634 7.82322 1.82322C7.77634 1.87011 7.75 1.9337 7.75 2C7.75 2.0663 7.77634 2.12989 7.82322 2.17678C7.87011 2.22366 7.9337 2.25 8 2.25ZM13.1161 1.11612C13.3505 0.881694 13.6685 0.75 14 0.75C14.3315 0.75 14.6495 0.881694 14.8839 1.11612C15.1183 1.35054 15.25 1.66848 15.25 2C15.25 2.33152 15.1183 2.64946 14.8839 2.88388C14.6495 3.11831 14.3315 3.25 14 3.25C13.6685 3.25 13.3505 3.11831 13.1161 2.88388C12.8817 2.64946 12.75 2.33152 12.75 2C12.75 1.66848 12.8817 1.35054 13.1161 1.11612ZM14 2.25C14.0663 2.25 14.1299 2.22366 14.1768 2.17678C14.2237 2.12989 14.25 2.0663 14.25 2C14.25 1.9337 14.2237 1.87011 14.1768 1.82322C14.1299 1.77634 14.0663 1.75 14 1.75C13.9337 1.75 13.8701 1.77634 13.8232 1.82322C13.7763 1.87011 13.75 1.9337 13.75 2C13.75 2.0663 13.7763 2.12989 13.8232 2.17678C13.8701 2.22366 13.9337 2.25 14 2.25Z" fill="#999999"/>
</svg>
