<svg width="27" height="25" viewBox="0 0 27 25" fill="none" xmlns="http://www.w3.org/2000/svg">
<path d="M23.1161 2.56409L14.6727 8.79377L16.2428 5.12241L23.1161 2.56409Z" fill="#E17726" stroke="#E17726" stroke-width="0.25" stroke-linecap="round" stroke-linejoin="round"/>
<path d="M3.64038 2.56409L12.0086 8.85191L10.5137 5.12241L3.64038 2.56409Z" fill="#E27625" stroke="#E27625" stroke-width="0.25" stroke-linecap="round" stroke-linejoin="round"/>
<path d="M20.0759 17.0085L17.8293 20.4307L22.6398 21.7514L24.0178 17.0834L20.0759 17.0085Z" fill="#E27625" stroke="#E27625" stroke-width="0.25" stroke-linecap="round" stroke-linejoin="round"/>
<path d="M2.7467 17.0834L4.11634 21.7514L8.91845 20.4307L6.68024 17.0085L2.7467 17.0834Z" fill="#E27625" stroke="#E27625" stroke-width="0.25" stroke-linecap="round" stroke-linejoin="round"/>
<path d="M8.65957 11.2275L7.32336 13.2376L12.0837 13.4535L11.925 8.34521L8.65957 11.2275Z" fill="#E27625" stroke="#E27625" stroke-width="0.25" stroke-linecap="round" stroke-linejoin="round"/>
<path d="M18.0967 11.2275L14.7812 8.28711L14.6726 13.4536L19.4329 13.2376L18.0967 11.2275Z" fill="#E27625" stroke="#E27625" stroke-width="0.25" stroke-linecap="round" stroke-linejoin="round"/>
<path d="M8.91858 20.4307L11.7998 19.0436L9.31946 17.1166L8.91858 20.4307Z" fill="#E27625" stroke="#E27625" stroke-width="0.25" stroke-linecap="round" stroke-linejoin="round"/>
<path d="M14.9567 19.0436L17.8295 20.4307L17.437 17.1166L14.9567 19.0436Z" fill="#E27625" stroke="#E27625" stroke-width="0.25" stroke-linecap="round" stroke-linejoin="round"/>
<path d="M17.8295 20.4309L14.9567 19.0438L15.1905 20.9044L15.1654 21.6935L17.8295 20.4309Z" fill="#D5BFB2" stroke="#D5BFB2" stroke-width="0.25" stroke-linecap="round" stroke-linejoin="round"/>
<path d="M8.91858 20.4309L11.5911 21.6935L11.5744 20.9044L11.7998 19.0438L8.91858 20.4309Z" fill="#D5BFB2" stroke="#D5BFB2" stroke-width="0.25" stroke-linecap="round" stroke-linejoin="round"/>
<path d="M11.6411 15.8873L9.25256 15.1896L10.9395 14.4171L11.6411 15.8873Z" fill="#233447" stroke="#233447" stroke-width="0.25" stroke-linecap="round" stroke-linejoin="round"/>
<path d="M15.1154 15.8873L15.8169 14.4171L17.5122 15.1896L15.1154 15.8873Z" fill="#233447" stroke="#233447" stroke-width="0.25" stroke-linecap="round" stroke-linejoin="round"/>
<path d="M8.91847 20.4307L9.33607 17.0085L6.6803 17.0834L8.91847 20.4307Z" fill="#CC6228" stroke="#CC6228" stroke-width="0.25" stroke-linecap="round" stroke-linejoin="round"/>
<path d="M17.4203 17.0085L17.8295 20.4307L20.0761 17.0834L17.4203 17.0085Z" fill="#CC6228" stroke="#CC6228" stroke-width="0.25" stroke-linecap="round" stroke-linejoin="round"/>
<path d="M19.4329 13.2375L14.6726 13.4535L15.1152 15.8873L15.8168 14.417L17.5121 15.1895L19.4329 13.2375Z" fill="#CC6228" stroke="#CC6228" stroke-width="0.25" stroke-linecap="round" stroke-linejoin="round"/>
<path d="M9.25255 15.1895L10.9395 14.417L11.6411 15.8873L12.0837 13.4535L7.32336 13.2375L9.25255 15.1895Z" fill="#CC6228" stroke="#CC6228" stroke-width="0.25" stroke-linecap="round" stroke-linejoin="round"/>
<path d="M7.32349 13.2375L9.3195 17.1166L9.25264 15.1895L7.32349 13.2375Z" fill="#E27525" stroke="#E27525" stroke-width="0.25" stroke-linecap="round" stroke-linejoin="round"/>
<path d="M17.5122 15.1895L17.437 17.1166L19.433 13.2375L17.5122 15.1895Z" fill="#E27525" stroke="#E27525" stroke-width="0.25" stroke-linecap="round" stroke-linejoin="round"/>
<path d="M12.0839 13.4535L11.6412 15.8873L12.2008 18.7612L12.3261 14.9736L12.0839 13.4535Z" fill="#E27525" stroke="#E27525" stroke-width="0.25" stroke-linecap="round" stroke-linejoin="round"/>
<path d="M14.6727 13.4535L14.4388 14.9653L14.5558 18.7612L15.1153 15.8873L14.6727 13.4535Z" fill="#E27525" stroke="#E27525" stroke-width="0.25" stroke-linecap="round" stroke-linejoin="round"/>
<path d="M15.1153 15.8873L14.5558 18.7612L14.9567 19.0437L17.4371 17.1166L17.5122 15.1896L15.1153 15.8873Z" fill="#F5841F" stroke="#F5841F" stroke-width="0.25" stroke-linecap="round" stroke-linejoin="round"/>
<path d="M9.25256 15.1896L9.31942 17.1166L11.7998 19.0437L12.2006 18.7612L11.6411 15.8873L9.25256 15.1896Z" fill="#F5841F" stroke="#F5841F" stroke-width="0.25" stroke-linecap="round" stroke-linejoin="round"/>
<path d="M15.1655 21.6933L15.1905 20.9042L14.9734 20.7215H11.7832L11.5744 20.9042L11.5911 21.6933L8.91858 20.4308L9.85394 21.195L11.7497 22.4991H14.9984L16.9025 21.195L17.8295 20.4308L15.1655 21.6933Z" fill="#C0AC9D" stroke="#C0AC9D" stroke-width="0.25" stroke-linecap="round" stroke-linejoin="round"/>
<path d="M14.9565 19.0436L14.5557 18.7612H12.2006L11.7997 19.0436L11.5742 20.9042L11.783 20.7215H14.9733L15.1904 20.9042L14.9565 19.0436Z" fill="#161616" stroke="#161616" stroke-width="0.25" stroke-linecap="round" stroke-linejoin="round"/>
<path d="M23.4751 9.20075L24.185 5.76199L23.116 2.56409L14.9567 8.58614L18.0968 11.2275L22.5314 12.515L23.5085 11.377L23.0826 11.0697L23.7591 10.455L23.2413 10.0563L23.9178 9.54133L23.4751 9.20075Z" fill="#763E1A" stroke="#763E1A" stroke-width="0.25" stroke-linecap="round" stroke-linejoin="round"/>
<path d="M2.57141 5.76199L3.28964 9.20075L2.83031 9.54133L3.51513 10.0563L2.99734 10.455L3.6738 11.0697L3.24788 11.377L4.225 12.515L8.65965 11.2275L11.7998 8.58614L3.6404 2.56409L2.57141 5.76199Z" fill="#763E1A" stroke="#763E1A" stroke-width="0.25" stroke-linecap="round" stroke-linejoin="round"/>
<path d="M22.5314 12.515L18.0968 11.2275L19.433 13.2377L17.437 17.1166L20.0761 17.0834H24.0179L22.5314 12.515Z" fill="#F5841F" stroke="#F5841F" stroke-width="0.25" stroke-linecap="round" stroke-linejoin="round"/>
<path d="M8.65951 11.2275L4.22491 12.515L2.7467 17.0834H6.68024L9.31927 17.1166L7.3233 13.2377L8.65951 11.2275Z" fill="#F5841F" stroke="#F5841F" stroke-width="0.25" stroke-linecap="round" stroke-linejoin="round"/>
<path d="M14.6726 13.4536L14.9565 8.58611L16.2426 5.12244H10.5135L11.7996 8.58611L12.0836 13.4536L12.1922 14.9819L12.2005 18.7613H14.5556L14.564 14.9819L14.6726 13.4536Z" fill="#F5841F" stroke="#F5841F" stroke-width="0.25" stroke-linecap="round" stroke-linejoin="round"/>
</svg>
